<?xml version="1.0" encoding="utf-8"?>
<!-- Generator: Adobe Illustrator 18.0.0, SVG Export Plug-In . SVG Version: 6.00 Build 0)  -->
<!DOCTYPE svg PUBLIC "-//W3C//DTD SVG 1.1//EN" "http://www.w3.org/Graphics/SVG/1.1/DTD/svg11.dtd">
<svg version="1.1" id="Capa_1" xmlns="http://www.w3.org/2000/svg" xmlns:xlink="http://www.w3.org/1999/xlink" x="0px" y="0px"
	 viewBox="0 0 297.6 297.6" enable-background="new 0 0 297.6 297.6" xml:space="preserve">
<g id="icomoon-ignore">
</g>
<path fill="#575756" d="M289.3,32.8c-13,6.9-25.9,11.7-38.8,14.2c-11.6-12.4-26.3-18.7-43.9-18.7c-17.2,0-31.9,6-43.6,17.9
	C151,57.9,145.1,72.2,145.1,89c0,5.2,0.7,9.7,1.9,13.6c-50.9-1.7-92.9-22.8-126-63.3c-5.6,9.9-8.3,20-8.3,30.4
	c0,21.5,8.9,38.5,27,51.1c-10.4-0.9-19.4-3.5-27-7.8v0.6c0,14.7,4.5,27.7,13.4,38.8c9.1,11.3,20.8,18.4,35,21.3
	c-5.1,1.3-10.5,2-16.2,2c-5.2,0-8.9-0.4-11-1.4c3.9,12.6,11,22.6,21.3,30.5c10.3,7.7,22.1,11.8,35.6,12.2
	c-22,17.2-47.2,25.8-75.7,25.8c-6.9,0-11.9-0.1-14.9-0.6c28.1,18.1,59.3,27.2,93.7,27.2c35.4,0,66.7-8.9,93.8-26.8
	c27.1-17.9,47.2-39.7,60.1-65.6c12.9-25.9,19.4-52.8,19.4-80.8v-7.8c12.4-9.5,22.6-20.1,30.4-31.6c-11.1,4.7-22.8,7.9-34.8,9.6
	C276.1,58.2,285,47,289.3,32.8z"/>
</svg>
