<?xml version="1.0" encoding="utf-8"?>
<!-- Generator: Adobe Illustrator 18.0.0, SVG Export Plug-In . SVG Version: 6.00 Build 0)  -->
<!DOCTYPE svg PUBLIC "-//W3C//DTD SVG 1.1//EN" "http://www.w3.org/Graphics/SVG/1.1/DTD/svg11.dtd">
<svg version="1.1" id="Capa_1" xmlns="http://www.w3.org/2000/svg" xmlns:xlink="http://www.w3.org/1999/xlink" x="0px" y="0px"
	 viewBox="0 0 297.6 297.6" enable-background="new 0 0 297.6 297.6" xml:space="preserve">
<g id="icomoon-ignore">
</g>
<path fill-rule="evenodd" clip-rule="evenodd" fill="#575756" d="M292.5,78.6c-3.6-15.8-16.6-27.4-32.1-29.2
	c-36.8-4.1-74.1-4.1-111.2-4.1c-37.1,0-74.3,0-111.2,4.1C22.5,51.2,9.6,62.9,6,78.6c-5.2,22.5-5.3,47-5.3,70.2
	c0,23.2,0,47.7,5.2,70.2c3.6,15.8,16.5,27.4,32.1,29.2c36.8,4.1,74.1,4.1,111.2,4.1c37.1,0,74.3,0,111.1-4.1
	c15.6-1.7,28.5-13.4,32.1-29.2c5.2-22.5,5.2-47,5.2-70.2C297.6,125.7,297.7,101.1,292.5,78.6L292.5,78.6z M110.9,194.9V96.7
	c31.5,16.4,62.7,32.7,94.4,49.3C173.7,162.3,142.4,178.6,110.9,194.9L110.9,194.9z M110.9,194.9"/>
</svg>
